#N canvas 0 50 450 300 12;
#X obj 123 33 inlet~;
#X obj 128 390 outlet~;
#X obj 241 390 outlet~;
#X obj 128 354 *~;
#X obj 411 203 inlet~;
#X obj 241 347 *~;
#X obj 357 67 noise~;
#X obj 357 111 *~;
#X obj 357 185 +~;
#X obj 432 126 r \$0- center;
#X obj 357 243 samphold~;
#X obj 372 275 sig~ 1;
#X obj 372 309 -~;
#X msg 168 91 \; \$1-\$2 \$3, f 12;
#X obj 168 59 list prepend \$0;
#X obj 548 50 loadbang;
#X msg 542 78 0.5;
#X obj 430 59 r \$0-spread;
#X obj 430 87 * 0.5;
#X obj 372 378 pow~ 0.5;
#X obj 252 309 pow~ 0.5;
#X connect 0 0 3 0;
#X connect 0 0 5 0;
#X connect 0 1 14 0;
#X connect 3 0 1 0;
#X connect 4 0 10 1;
#X connect 5 0 2 0;
#X connect 6 0 7 0;
#X connect 7 0 8 0;
#X connect 8 0 10 0;
#X connect 9 0 8 1;
#X connect 10 0 12 1;
#X connect 10 0 20 0;
#X connect 11 0 12 0;
#X connect 12 0 19 0;
#X connect 14 0 13 0;
#X connect 15 0 16 0;
#X connect 16 0 8 1;
#X connect 16 0 18 0;
#X connect 17 0 18 0;
#X connect 18 0 7 1;
#X connect 19 0 3 1;
#X connect 20 0 5 1;
