#N canvas 733 172 450 300 12;
#X obj 74 67 noise~;
#X obj 61 335 *~;
#X obj 61 369 +~;
#X obj 61 459 outlet~;
#X obj 219 296 r \$1-\$2Random;
#X obj 115 384 r~ \$1-state;
#X obj 267 335 r \$1-\$2;
#X obj 196 459 outlet;
#X obj 205 376 t b;
#X obj 150 245 abs~;
#X obj 61 251 *~ 1;
#X obj 150 280 *~ 0;
#X obj 237 106 == 1;
#X obj 61 425 samphold~;
#X obj 237 16 loadbang;
#X obj 237 59 \$3;
#X obj 174 126 == 0;
#X obj 390 309 loadbang;
#X obj 375 354 \$4;
#X obj 341 124 == 2;
#X obj 267 197 *~ 1;
#X obj 267 233 abs~;
#X obj 267 261 *~ -1;
#X connect 0 0 10 0;
#X connect 0 0 9 0;
#X connect 0 0 20 0;
#X connect 1 0 2 0;
#X connect 2 0 13 0;
#X connect 4 0 1 1;
#X connect 4 0 8 0;
#X connect 5 0 13 1;
#X connect 6 0 2 1;
#X connect 6 0 8 0;
#X connect 8 0 7 0;
#X connect 9 0 11 0;
#X connect 10 0 1 0;
#X connect 11 0 1 0;
#X connect 12 0 11 1;
#X connect 13 0 3 0;
#X connect 14 0 15 0;
#X connect 15 0 12 0;
#X connect 15 0 16 0;
#X connect 15 0 19 0;
#X connect 16 0 10 1;
#X connect 17 0 18 0;
#X connect 18 0 2 1;
#X connect 18 0 8 0;
#X connect 19 0 20 1;
#X connect 20 0 21 0;
#X connect 21 0 22 0;
#X connect 22 0 1 0;
