#N canvas 733 172 450 300 12;
#X obj 55 78 inlet~;
#X obj 235 94 inlet~;
#X obj 55 175 outlet~;
#X obj 55 175 outlet~;
#X obj 55 126 clone -di _gf.stereoPan_voice~ \$1;
#X connect 0 0 4 0;
#X connect 0 1 4 0;
#X connect 1 0 4 1;
#X connect 4 0 2 0;
#X connect 4 1 3 0;
