#N canvas 0 50 450 300 12;
#X obj 197 185 inlet~;
#X obj 207 368 outlet;
#X obj 259 209 route bang;
#X msg 288 253 all bang;
#X obj 197 300 clone -d _gf.snapshot_voice~ \$1;
#X connect 0 0 4 0;
#X connect 0 1 2 0;
#X connect 2 0 3 0;
#X connect 3 0 4 0;
#X connect 4 0 1 0;
