#N canvas 733 172 450 300 12;
#X obj 99 311 inlet~;
#X obj -48 118 inlet~;
#X obj 160 311 inlet~;
#X obj 63 495 outlet~;
#X obj 236 296 inlet~;
#X obj 116 409 outlet~;
#X obj 176 418 outlet~;
#X obj 236 430 outlet~;
#X obj 419 262 array define \$0-internal_env 1024;
#X f 35;
#X msg 418 141 read ./gf.hanning;
#X obj 364 50 loadbang;
#X obj 59 359 clone -d _gf.voice~ \$2 \$2;
#X obj 58 32 loadbang;
#X obj 58 70 symbol \$1;
#X obj 374 325 symbol \$0-internal_env;
#X msg 374 355 all env \$1;
#X msg 58 130 all buffer \$1;
#X obj 32 263 list prepend all;
#X obj 35 292 route list;
#X obj 19 32 bng 25 250 50 0 empty empty empty 17 7 0 10 #e4e4e4 #4d4d4d #373737;
#X obj 354 85 t b b;
#X obj 467 63 bng 25 250 50 0 empty empty empty 17 7 0 10 #e4e4e4 #4d4d4d #373737;
#X obj 320 422 outlet~;
#X obj 63 460 *~;
#X obj 86 210 list prepend ngrains;
#X obj -186 279 \$2;
#X msg -186 312 ngrains \$1;
#X obj -186 210 sel 1 0;
#X obj -186 169 >= 1;
#X obj -106 429 line~;
#X msg -106 370 \$1 50;
#X obj -269 279 del 75;
#X obj -270 309 0;
#X obj 86 169 route ngrains state;
#X connect 0 0 11 1;
#X connect 1 0 11 0;
#X connect 1 1 33 0;
#X connect 2 0 11 2;
#X connect 4 0 11 3;
#X connect 9 0 8 0;
#X connect 10 0 20 0;
#X connect 11 0 23 0;
#X connect 11 1 5 0;
#X connect 11 2 6 0;
#X connect 11 3 7 0;
#X connect 11 4 22 0;
#X connect 12 0 13 0;
#X connect 13 0 16 0;
#X connect 14 0 15 0;
#X connect 15 0 11 0;
#X connect 16 0 11 0;
#X connect 17 0 18 0;
#X connect 18 0 11 0;
#X connect 19 0 13 0;
#X connect 20 0 14 0;
#X connect 20 1 9 0;
#X connect 21 0 20 0;
#X connect 23 0 3 0;
#X connect 24 0 17 0;
#X connect 25 0 26 0;
#X connect 26 0 17 0;
#X connect 27 0 25 0;
#X connect 27 1 31 0;
#X connect 28 0 30 0;
#X connect 28 0 27 0;
#X connect 29 0 23 1;
#X connect 30 0 29 0;
#X connect 31 0 32 0;
#X connect 32 0 26 0;
#X connect 33 0 24 0;
#X connect 33 0 25 1;
#X connect 33 1 28 0;
#X connect 33 2 17 0;
