#N canvas 827 239 527 327 12;
#X obj 535 294 array define grainflow_env 1024;
#X f 28;
#X obj 472 400 soundfiler;
#X obj 535 251 array set grainflow_env;
#X obj 486 180 uzi 1024 0;
#X obj 535 210 expr 1-(cos(($f1/1024)*6.28)+1)*0.5;
#X obj 486 156 loadbang;
#X msg 191 66 all buffer grainflow_buffer;
#X obj 58 244 sum~;
#X obj 58 315 dac~;
#X obj 472 443 array define grainflow_buffer;
#X f 32;
#X msg 472 354 read -resize ./huge.aiff grainflow_buffer;
#X obj 58 275 *~ 0.125;
#X obj 119 142 phasor~ 0.75;
#X obj 58 210 clone -d _gf.voice~ 4 4;
#X msg 414 66 all env grainflow_env;
#X obj 58 102 phasor~ 12;
#X msg 321 131 all transposeRandom 10;
#X msg 380 18 all delayRandom 400;
#X obj 180 180 sig~ 0;
#X connect 3 2 2 1;
#X connect 3 2 4 0;
#X connect 4 0 2 0;
#X connect 5 0 3 0;
#X connect 6 0 13 0;
#X connect 7 0 11 0;
#X connect 10 0 1 0;
#X connect 11 0 8 0;
#X connect 11 0 8 1;
#X connect 12 0 13 1;
#X connect 13 0 7 0;
#X connect 14 0 13 0;
#X connect 15 0 13 0;
#X connect 16 0 13 0;
#X connect 17 0 13 0;
#X connect 18 0 13 2;
