#N canvas 827 239 527 327 12;
#X obj 370 434 soundfiler;
#X obj 67 654 dac~;
#X obj 370 477 array define grainflow_buffer;
#X f 32;
#X msg 370 388 read -resize ./LowBell1.wav grainflow_buffer;
#X msg 210 425 all spread 1;
#X obj 61 373 gf~ grainflow_buffer 8;
#X msg 469 129 delayRandom 5000;
#X msg 528 205 ampRandom 0.5;
#X msg 324 259 ngrains 4;
#X msg 370 354 windowOffset auto;
#X msg 528 259 windowOffset 0;
#X msg 537 314 buffer grainflow_buffer;
#X obj 103 267 sig~ 0.1;
#X obj 61 407 *~ 0.5;
#X obj 61 455 gf.stereoPan~ 8;
#X msg 324 296 density 1;
#X msg 384 213 space 0;
#X obj 67 497 meter2~;
#X obj 250 513 tgl 25 0 empty empty empty 17 7 0 10 #e4e4e4 #4d4d4d #373737 0 1;
#X obj 247 703 array set grainPositions;
#X obj 272 659 swap;
#X obj 249 626 unpack i i;
#N canvas 0 0 450 250 (subpatch) 0;
#X array grainPositions 8 float 2;
#X coords 0 1 8 0 200 140 1;
#X restore 716 328 graph;
#X obj 250 553 metro 33;
#X obj 250 591 gf.snapshot~ 8;
#X msg 335 129 transposeRandom 10;
#X obj 61 205 phasor~ 0.5;
#X obj 38 93 tgl 25 0 empty empty empty 17 7 0 10 #e4e4e4 #4d4d4d #373737 0 1;
#X msg 38 129 state \$1;
#X connect 3 0 0 0;
#X connect 4 0 14 0;
#X connect 5 0 13 0;
#X connect 5 1 14 1;
#X connect 5 3 24 0;
#X connect 6 0 5 0;
#X connect 7 0 5 0;
#X connect 8 0 5 0;
#X connect 9 0 5 0;
#X connect 10 0 5 0;
#X connect 11 0 5 0;
#X connect 12 0 5 1;
#X connect 13 0 14 0;
#X connect 14 0 17 0;
#X connect 14 1 17 1;
#X connect 15 0 5 0;
#X connect 16 0 5 0;
#X connect 17 0 1 0;
#X connect 17 1 1 1;
#X connect 18 0 23 0;
#X connect 20 0 19 0;
#X connect 20 1 19 1;
#X connect 21 0 20 0;
#X connect 21 1 20 1;
#X connect 23 0 24 0;
#X connect 24 0 21 0;
#X connect 25 0 5 0;
#X connect 26 0 5 0;
#X connect 27 0 28 0;
#X connect 28 0 5 0;
